<svg width="1200" height="900" viewBox="0 0 1200 900" fill="none" xmlns="http://www.w3.org/2000/svg">
  <rect width="1200" height="900" fill="#1B140F"/>
  <rect x="70" y="86" width="1060" height="728" rx="42" fill="#241B17" stroke="#E7C899" stroke-opacity="0.2"/>
  <g opacity="0.9">
    <circle cx="244" cy="246" r="126" fill="#D6A76E" fill-opacity="0.18"/>
    <path d="M214 260C236 201 281 164 333 150C283 214 266 287 273 378C243 366 221 338 214 260Z" fill="#D6A76E" fill-opacity="0.9"/>
    <path d="M244 238C260 227 304 193 340 198C334 260 312 287 279 308C259 291 249 271 244 238Z" fill="#F2D5A4" fill-opacity="0.9"/>
    <path d="M273 354C292 325 315 304 345 291L373 354C349 385 318 395 273 354Z" fill="#B26836" fill-opacity="0.75"/>
    <path d="M273 354H360C372 441 361 504 320 548C282 506 270 441 273 354Z" fill="#7B4C2B" fill-opacity="0.75"/>
  </g>
  <g>
    <path d="M605 187H1025" stroke="#E6C998" stroke-width="4" stroke-linecap="round" stroke-dasharray="10 10"/>
    <path d="M642 317H1030" stroke="#E6C998" stroke-width="4" stroke-linecap="round" stroke-dasharray="10 10"/>
    <path d="M680 447H995" stroke="#E6C998" stroke-width="4" stroke-linecap="round" stroke-dasharray="10 10"/>
    <path d="M732 577H962" stroke="#E6C998" stroke-width="4" stroke-linecap="round" stroke-dasharray="10 10"/>
  </g>
  <g>
    <rect x="600" y="180" width="200" height="98" rx="18" fill="#DAB67D" fill-opacity="0.12"/>
    <rect x="834" y="270" width="180" height="88" rx="18" fill="#DAB67D" fill-opacity="0.12"/>
    <rect x="666" y="382" width="186" height="90" rx="18" fill="#DAB67D" fill-opacity="0.12"/>
    <rect x="813" y="504" width="186" height="90" rx="18" fill="#DAB67D" fill-opacity="0.12"/>
    <text x="628" y="228" fill="#F5E5C4" font-family="Arial, sans-serif" font-size="26" font-weight="700">LOT 04</text>
    <text x="858" y="321" fill="#F5E5C4" font-family="Arial, sans-serif" font-size="26" font-weight="700">LOT 07</text>
    <text x="694" y="434" fill="#F5E5C4" font-family="Arial, sans-serif" font-size="26" font-weight="700">LOT 12</text>
    <text x="842" y="556" fill="#F5E5C4" font-family="Arial, sans-serif" font-size="26" font-weight="700">LOT 19</text>
  </g>
  <g>
    <rect x="132" y="470" width="320" height="224" rx="22" fill="#221B18" stroke="#E7C899" stroke-opacity="0.2"/>
    <text x="158" y="520" fill="#F3DAB0" font-family="Arial, sans-serif" font-size="22" font-weight="700">Traceability snapshot</text>
    <text x="158" y="570" fill="#EDE0C8" font-family="Arial, sans-serif" font-size="20">Farm: Upper Alto Valley</text>
    <text x="158" y="610" fill="#EDE0C8" font-family="Arial, sans-serif" font-size="20">Variety: Gesha / SL28</text>
    <text x="158" y="650" fill="#EDE0C8" font-family="Arial, sans-serif" font-size="20">Process: Washed</text>
    <text x="158" y="690" fill="#EDE0C8" font-family="Arial, sans-serif" font-size="20">Cup score: 88.6</text>
  </g>
  <g>
    <circle cx="890" cy="674" r="76" fill="#D6A76E" fill-opacity="0.18"/>
    <circle cx="890" cy="674" r="54" fill="#D6A76E" fill-opacity="0.65"/>
    <text x="850" y="686" fill="#1B140F" font-family="Arial, sans-serif" font-size="28" font-weight="700">65%</text>
  </g>
</svg>
